# xmcd
#
# Track frame offsets:
#	150
#	17627
#	31936
#	45327
#	57114
#	73868
#	90730
#	106798
#	118898
#	137397
#	153384
#	168661
#
# Disc length: 2477 seconds
#
# Revision: 1
# Processed by: cddbd v1.5.2PL0 Copyright (c) Steve Scherf et al.
# Submitted via: audiograbber 1.83.01
#
DISCID=9509ab0c
DTITLE=The O's - Thunderdog
DYEAR=2013
DGENRE=Country
TTITLE0=Outlaw
TTITLE1=Dallas
TTITLE2=You are the Light
TTITLE3=Go With Me
TTITLE4=Cicerone
TTITLE5=Found the One
TTITLE6=Levee Breaks
TTITLE7=Secrets
TTITLE8=Running Games
TTITLE9=Lighten the Load
TTITLE10=Rearranged
TTITLE11=Kitty
EXTD=
EXTT0=
EXTT1=
EXTT2=
EXTT3=
EXTT4=
EXTT5=
EXTT6=
EXTT7=
EXTT8=
EXTT9=
EXTT10=
EXTT11=
PLAYORDER=
